# xmcd
#
# Track frame offsets:
#	150
#	21401
#	49360
#	74894
#
# Disc length: 1317 seconds
#
# Revision: 1
# Processed by: cddbd v1.5.1PL2 Copyright (c) Steve Scherf et al.
# Submitted via: audiograbber 1.83.01
#
DISCID=3e052304
DTITLE=The Derek Trucks Band - Backyard Tracks - Live 12/30/05
DYEAR=2006
DGENRE=Alternative
TTITLE0=Up Above My Head
TTITLE1=All I Do
TTITLE2=Key To The Highway
TTITLE3=I Wish I Knew (How It Would Feel To Be Free)
EXTD=
EXTT0=
EXTT1=
EXTT2=
EXTT3=
PLAYORDER=
